HIERARCHY
ROOT Spine
{
    OFFSET 0.0 0.0 -0.0
    CHANNELS 6 Xposition Yposition Zposition Zrotation Xrotation Yrotation
    JOINT ShoulderCenter
    {
        OFFSET 0.0 35.041839599609375 0.0
        CHANNELS 3 Zrotation Xrotation Yrotation
        JOINT LeftShoulder
        {
            OFFSET 18.595348358154297 0.0 0.0
            CHANNELS 3 Zrotation Xrotation Yrotation
            JOINT LeftElbow
            {
                OFFSET 29.717397689819336 0.0 0.0
                CHANNELS 3 Zrotation Xrotation Yrotation
                JOINT LeftHand
                {
                    OFFSET 32.40068054199219 0.0 0.0
                    CHANNELS 3 Zrotation Xrotation Yrotation
                    End Site
                    {
                        OFFSET 12.960272789001465 0.0 0.0
                    }
                }
            }
        }
        JOINT RightShoulder
        {
            OFFSET -18.595348358154297 0.0 0.0
            CHANNELS 3 Zrotation Xrotation Yrotation
            JOINT RightElbow
            {
                OFFSET -29.717397689819336 0.0 0.0
                CHANNELS 3 Zrotation Xrotation Yrotation
                JOINT RightHand
                {
                    OFFSET -32.40068054199219 0.0 0.0
                    CHANNELS 3 Zrotation Xrotation Yrotation
                    End Site
                    {
                        OFFSET -12.960272789001465 0.0 0.0
                    }
                }
            }
        }
        End Site
        {
            OFFSET 0.0 14.016736030578613 0.0
        }
    }
    JOINT LeftHip
    {
        OFFSET 17.49466723907981 -17.49466723907981 0.0
        CHANNELS 3 Zrotation Xrotation Yrotation
        JOINT LeftKnee
        {
            OFFSET 0.0 -41.608306884765625 0.0
            CHANNELS 3 Zrotation Xrotation Yrotation
            JOINT LeftFoot
            {
                OFFSET 0.0 -44.10009002685547 0.0
                CHANNELS 3 Zrotation Xrotation Yrotation
                End Site
                {
                    OFFSET 0.0 0.0 17.640037536621094
                }
            }
        }
    }
    JOINT RightHip
    {
        OFFSET -17.49466723907981 -17.49466723907981 0.0
        CHANNELS 3 Zrotation Xrotation Yrotation
        JOINT RightKnee
        {
            OFFSET 0.0 -41.608306884765625 0.0
            CHANNELS 3 Zrotation Xrotation Yrotation
            JOINT RightFoot
            {
                OFFSET 0.0 -44.10009002685547 0.0
                CHANNELS 3 Zrotation Xrotation Yrotation
                End Site
                {
                    OFFSET 0.0 0.0 17.640037536621094
                }
            }
        }
    }
}
MOTION
Frames: 14
Frame Time: 0.03333333333333333
-48.5 10.100000381469727 -33.5 -47.20706433629821 -6.8648730387476515 79.90657241538582 -1.277680963660365e-06 -6.445272896188341e-07 -2.1510711137780163 107.0414305321504 -10.83421495679109 -132.99355452286565 1.3906085158052853e-08 2.3687311655544895e-06 40.06223995222296 4.770832022195275e-15 -5.565970692561154e-15 1.5902773407317588e-15 -94.12037572690693 -13.8429227485554 170.78086428802476 -3.4677659374923714e-06 -1.006614785671333e-06 -102.90508072131354 3.1805546814635176e-15 4.4139062980501586e-32 1.5902773407317588e-15 25.862927450315848 -57.24490390506242 71.3033469150912 16.416344142854637 4.342102886493687 -18.231868641842173 -5.034611871213462e-32 -7.95138670365879e-16 -7.255640367088647e-15 9.638536384489024 -45.60883652343084 -21.82798348131793 2.5126982898202828 -8.253414989042316 -12.008415478071411 0.0 0.0 2.0872390097104334e-15
-48.5 10.0 -33.39999771118164 -47.43912017636929 -7.025570680893585 80.67994608948668 5.991216311385322e-07 -2.009473794583849e-06 -3.316079259902139 107.10570272934483 -10.42297098276863 -132.69476983235668 -1.1226552534926575e-06 4.950542414205491e-06 39.8111335047231 7.95138670365879e-15 7.951386703658791e-16 -5.517382872562698e-32 -93.81528026589844 -13.198024958816493 175.94915034983023 -2.2708938440703527e-06 -1.0372221285857612e-06 -107.93926363087304 -3.1805546814635164e-15 -4.4139062980501586e-32 1.5902773407317582e-15 25.582427861678028 -58.12533968472454 71.44108647247326 16.6695714785975 4.548173305059471 -18.377200684842265 -2.2069531490250793e-32 1.5902773407317582e-15 1.5902773407317582e-15 9.422132736822078 -46.74422177282245 -22.93881657255899 1.582910968945781 -6.7012416731315785 -10.024838800565531 -3.975693351829396e-16 -3.4483642953516864e-34 9.93923337957349e-17
-48.599998474121094 10.0 -33.39999771118164 -47.671091478047906 -7.024311813494877 80.80778981782129 -1.317399540644142e-06 4.4081832519018056e-07 -4.056168225099096 107.79097913597975 -10.02695941531013 -132.4421123813463 -2.6216460315152207e-06 1.7603263790050693e-06 39.87276606519398 -1.5902773407317592e-15 6.3611093629270335e-15 9.54166404439055e-15 -94.85077185949667 -14.043133214122467 176.82096298098412 -1.5941636551867776e-06 3.0792070351620873e-06 -109.51910517707559 0.0 1.2722218725854065e-14 0.0 26.242622065362507 -58.57893956355298 73.46408185924992 16.77867460683293 4.603775523409029 -19.094596939383706 0.0 0.0 -6.758678698109972e-15 9.389183955454072 -47.269783017327626 -22.474284074014058 1.3524433866193786 -6.199164682668423 -9.336787558737601 2.63799868594404e-32 1.789062008323228e-15 -1.689669674527493e-15
-48.79999923706055 9.899999618530273 -33.39999771118164 -47.90298267305749 -7.184579438600306 80.43818413285335 2.076596037117369e-06 2.4105026399828055e-06 -3.873334208794632 108.19978322877056 -9.87306892305212 -132.10469001120268 -1.2765480889198667e-06 1.7636223930897958e-06 40.124031015231466 1.5902773407317582e-15 -4.4139062980501586e-32 -3.1805546814635164e-15 -96.80223051549096 -15.261529265220041 172.1776408960594 -1.6629991853387631e-06 4.035493493389512e-06 -106.98076505007604 0.0 0.0 0.0 27.177669096129684 -58.72886265013056 74.177612922394 17.06386828693368 4.68641064234418 -20.29507375568841 -7.951386703658792e-16 -2.344887720839147e-32 3.3793393490549868e-15 10.016552672852246 -47.54810083661875 -21.853658423311575 1.3402853398250227 -6.188412800061413 -9.198901854620347 0.0 0.0 1.739365841425361e-15
-49.0 9.899999618530273 -33.29999923706055 -47.90297780664489 -7.668784634209373 79.50855107592403 4.2714677314185637e-07 -1.5276431438723325e-06 -2.5875807897419136 108.88099253700531 -10.326119796725441 -131.8843848704058 -2.340889296741188e-06 9.539302784540312e-06 40.50253275157241 -7.95138670365879e-15 0.0 0.0 -97.55456312807645 -15.874439407242866 164.75053441912132 3.5388308799013995e-06 5.863614920312579e-07 -99.88414582467689 -1.7655625192200634e-31 -6.361109362927033e-15 -3.1805546814635164e-15 28.8947151787286 -58.18860730984287 75.02958167990717 17.086362358606344 4.722746554243756 -21.110317121229436 1.1927080055488188e-15 -3.051802401386242e-32 -2.9320738469741797e-15 11.505306377871221 -47.42908723858238 -21.4073832555731 1.5686003736268048 -6.346951900250972 -9.208038931918871 0.0 0.0 -1.3914926731402886e-15
-49.099998474121094 9.899999618530273 -33.19999694824219 -47.681954734955404 -8.024612469221053 78.16598780307676 1.1830523118108393e-06 1.9193642935540385e-06 -0.5604118107714944 109.99118457586242 -11.085825740671853 -131.5956124120478 6.4640318634909e-07 2.1452409075539736e-06 40.437938344504076 -4.4139062980501586e-32 7.951386703658792e-16 6.3611093629270335e-15 -96.57676853964063 -15.131394389547163 156.8297742426584 -3.6263288043170197e-06 -6.640985030585222e-07 -90.72857552037213 -8.827812596100317e-32 -6.3611093629270335e-15 -1.5902773407317584e-15 30.532669329353922 -57.19644519126052 75.78695070372575 17.25799204718344 4.684071107579844 -21.909663937285 0.0 0.0 7.056855699497178e-15 13.233462097874295 -46.99453739543964 -21.707635731338076 2.048850624364591 -6.85582499925895 -9.595737757269328 -1.5902773407317584e-15 7.379499592052609e-32 -5.317489858071817e-15
-49.29999923706055 9.800000190734863 -33.099998474121094 -47.44904233132607 -8.026047590350672 77.17803876994496 -2.1775785269898253e-06 -3.7934874207664283e-06 1.362793523657849 111.30391593378306 -12.223293789984103 -131.1248812434122 -1.7839550807082789e-06 2.95683377480787e-06 40.518147525853166 0.0 0.0 0.0 -94.07163241758198 -13.177003716260847 150.98512185357896 3.893157809580261e-07 5.228121278135215e-06 -84.18703248232919 0.0 0.0 0.0 31.96990716685322 -56.53411533933266 77.57154368301566 17.603644418102412 4.869168182627583 -24.2931972812899 0.0 0.0 -1.143011838650951e-15 14.229232665326151 -46.66897069890436 -21.152576513231054 2.389630311377121 -6.948181335057542 -9.45182768097422 2.896626008095417e-32 -1.5902773407317584e-15 2.087239009710433e-15
-49.5 9.800000190734863 -33.0 -47.0952540762872 -7.850431949491733 76.55509659394396 2.254802147261159e-06 -2.9413994516851698e-06 2.7274376985225395 112.71146720563762 -13.24493690134033 -130.35302420766996 7.390425627423237e-07 4.58899268735256e-06 40.00196377332793 7.951386703658792e-16 -6.3611093629270335e-15 4.4139062980501586e-32 -92.46186135269919 -11.826627003914176 149.8651946293763 3.1552300050865454e-06 5.36057504828944e-07 -83.78365100266609 8.827812596100317e-32 -6.3611093629270335e-15 1.5902773407317584e-15 32.687892936396906 -56.00349534593395 79.48141495691665 17.751552104640396 4.522350913464707 -23.363675340192646 2.069018577211012e-33 -7.951386703658791e-16 2.9817700138720465e-16 14.976456215755867 -46.71602312268823 -21.27369111216188 2.1019179241419557 -6.522707604436304 -8.76699290436113 -7.951386703658791e-16 9.655420026984722e-33 -1.3914926731402884e-15
-49.5 9.800000190734863 -32.900001525878906 -47.095253624002815 -8.173204794667447 76.97430216321278 3.956311145358268e-06 6.971739215672035e-07 1.9565571760798066 113.30966702185032 -13.09949317369249 -130.3067485030071 1.8023902187388172e-07 -1.6725684368390566e-06 39.45085196149277 -7.156248033292914e-15 -6.3611093629270335e-15 3.1805546814635164e-15 -92.36110637368654 -12.170431173928092 151.4851649645473 -2.1857765067951276e-06 3.3846574102299006e-07 -84.87779357596442 0.0 0.0 1.5902773407317584e-15 32.41740968254879 -56.16677830427218 78.77686729827053 17.751552104640396 4.522350913464707 -23.363675340192646 2.069018577211012e-33 -7.951386703658791e-16 2.9817700138720465e-16 14.840067378604875 -46.7524757654453 -20.983997084211676 1.9911196807695482 -6.109661800201561 -8.27942665067206 2.275920434932113e-32 -1.5902773407317588e-15 1.6399735076296263e-15
-49.5 9.899999618530273 -32.900001525878906 -47.095255016318404 -8.334389284010472 78.32544592408385 -3.828173782935074e-07 3.7146880160356e-07 -0.07246097135798556 112.33581567697934 -12.382588797412227 -130.75571825366495 -3.8890621305305215e-06 2.2371231777753505e-06 39.49008078789148 -7.95138670365879e-15 -7.951386703658788e-16 -4.770832022195274e-15 -93.7612571056913 -13.458257623348409 155.76011870082715 5.006646701379934e-07 3.922780219309841e-06 -89.7893010701898 0.0 0.0 -4.770832022195275e-15 31.000138259050615 -56.760073732796954 77.27079930019059 17.51064885297278 4.479691682671363 -22.52435065456216 -3.275946080584102e-32 7.951386703658792e-16 4.721135855297408e-15 13.621685531105099 -46.478011917648956 -20.143332521243586 1.80642260873638 -6.637762071697966 -9.28086097198786 -7.951386703658791e-16 -2.1724695060715624e-32 3.130858514565649e-15
-49.5 10.0 -32.900001525878906 -47.327819435403605 -8.333105243925718 79.30179891549737 2.0821985553383834e-06 1.2598938698356133e-06 -1.5602210595966148 111.63243310576985 -11.589504143110938 -130.52495603266397 9.62904906184824e-07 1.9914505262756624e-06 39.21467723655037 0.0 0.0 0.0 -94.60902326254848 -14.139628392724031 161.70685971135927 1.3524027559553105e-06 1.2780652524877545e-07 -96.91444193676654 -3.1805546814635176e-15 -6.361109362927035e-15 1.5902773407317584e-15 30.004151281008188 -57.61666124107605 76.56044385656355 17.5569075596479 4.341619564155417 -21.525116932169105 3.975693351829396e-16 3.120769687293276e-32 8.995006208514008e-15 12.764660436677614 -46.49218442949157 -19.137547500737686 1.6720432277070052 -6.9675979218256 -9.952153013459688 1.5902773407317584e-15 6.896728590703373e-33 4.969616689786745e-16
-49.39999771118164 10.0 -32.900001525878906 -47.32781144471755 -8.171936878567324 80.04203683438325 -1.275751261466329e-06 -4.536972725375172e-08 -3.0548337301301403 111.18046663597227 -10.892622821241227 -130.73852327498446 2.0331669078987725e-06 5.376246979759382e-06 39.26426890082632 -7.951386703658792e-15 1.1034765745125397e-31 -1.5902773407317584e-15 -94.73221657140417 -15.074650226151938 167.8526258871165 2.2995843396435316e-06 -2.05744917141671e-06 -103.32981110970451 0.0 0.0 0.0 28.986981181748757 -57.83059480323529 76.51836155157166 17.143038886778676 4.023276528459867 -19.264245397521073 -3.975693351829396e-16 6.37947394640062e-33 -1.8387581752210955e-15 12.047737537057795 -46.65547978770661 -18.98465182687337 1.2399208310766567 -6.7347687263916045 -9.749512278655693 3.9756933518293955e-16 4.827710013492361e-33 1.3914926731402884e-15
-49.5 10.0 -32.900001525878906 -47.439119743743866 -7.993962157665042 80.46238662775913 -3.2337941404506895e-07 -2.028993266528658e-06 -4.176081534687712 111.08206260182308 -10.258977476369807 -130.8362857491963 -3.7686463179201687e-06 2.570849780827569e-06 39.00605641107379 4.770832022195275e-15 -6.3611093629270335e-15 1.5902773407317588e-15 -94.9772678654051 -15.873327029215242 172.20191922434526 4.207985015043462e-07 1.9437510186820254e-07 -107.99794743238965 3.1805546814635168e-15 6.3611093629270335e-15 -1.5902773407317584e-15 28.08485451546281 -58.21251087849118 74.75073588861028 17.155622240854722 4.204167470006778 -19.942900929573927 -2.724207793327832e-32 -7.951386703658792e-16 -3.9259971849315285e-15 11.530856331479999 -47.15526461983715 -19.1488643666541 0.8846600860316326 -6.166871452349184 -9.081551488164376 -3.975693351829396e-16 -1.987846675914698e-16 2.3854160110976376e-15
-49.599998474121094 10.0 -33.0 -47.56029762625809 -7.847875706862101 80.2361803895082 -1.656902643124316e-07 2.5850410965338927e-06 -4.329893214249433 110.73855696583017 -9.777095846810909 -131.03773665497965 -1.8700893688508472e-07 -2.659565359353411e-06 39.30620794215276 0.0 0.0 -1.5902773407317582e-15 -95.80961336224598 -16.85786968986356 173.20896581235968 -1.3303668592832116e-07 3.0155174393830758e-06 -109.48072225141158 0.0 0.0 0.0 28.368025147670018 -58.23925524642976 75.6256265235935 17.072125065384636 4.010087463983944 -19.151233756350575 -7.951386703658792e-16 1.5862475758617757e-32 -2.2860236773019026e-15 11.557036205939845 -47.68744890651287 -19.916196961758057 0.8514412334221951 -5.608709289526107 -8.230963365804454 0.0 0.0 5.466578358765419e-16
